<svg version="1.1" id="Layer_1" xmlns="http://www.w3.org/2000/svg" xmlns:xlink="http://www.w3.org/1999/xlink" x="0px" y="0px"
	 width="100%" viewBox="0 0 1024 672" enable-background="new 0 0 1024 672" xml:space="preserve">
<path fill="#000000" opacity="1.000000" stroke="none" 
	d="
M428.065063,172.933502 
	C436.144958,169.401596 444.131714,165.635208 452.322601,162.382828 
	C474.674225,153.507614 497.916443,147.654770 521.362976,142.551697 
	C522.474854,142.309677 523.626038,141.867889 525.516113,143.118118 
	C525.516113,146.537277 525.545349,150.484558 525.503784,154.431091 
	C525.482910,156.411026 523.769836,156.694382 522.408936,157.177322 
	C489.192688,168.964737 459.503387,186.832092 432.823242,209.695358 
	C401.060822,236.913895 376.481750,269.441254 360.807709,308.466217 
	C358.943939,313.106567 359.269379,316.300995 363.838867,318.799652 
	C366.379822,320.189087 368.249817,322.831299 371.680511,323.101166 
	C374.943176,315.313660 376.366455,306.849487 381.594757,300.080872 
	C383.222900,301.146667 382.980164,302.247345 382.940552,303.177979 
	C382.376007,316.440643 390.313263,321.108826 402.692719,322.903473 
	C409.273743,323.857483 415.913177,321.816376 422.536682,321.244476 
	C425.267242,321.008728 427.369202,319.204163 429.324432,317.295746 
	C432.536591,314.160553 434.984741,310.330566 438.601776,307.540009 
	C440.528778,306.053284 440.913757,303.597626 441.060028,301.195160 
	C441.496246,294.029602 442.514832,286.957001 444.388245,280.008209 
	C444.814941,278.425598 445.151215,276.662231 444.901001,275.081451 
	C443.970001,269.199432 443.542236,263.211304 442.380646,257.421021 
	C441.271210,251.890900 437.123993,248.297714 431.219452,247.384567 
	C427.179993,246.759888 423.133881,246.178085 417.465454,245.335526 
	C438.603821,221.261292 461.723358,201.933945 489.268127,188.118683 
	C489.606232,188.420944 489.944366,188.723206 490.282471,189.025467 
	C487.391785,192.705231 484.497162,196.381943 481.611023,200.065247 
	C467.939148,217.513428 459.811859,236.984299 460.446198,259.480194 
	C460.851349,273.847473 463.883881,287.550568 472.111572,299.700256 
	C472.756744,300.652985 473.158630,301.819702 474.942902,302.106201 
	C481.238403,291.840637 478.424622,281.240295 475.474670,270.954407 
	C476.543182,270.161102 477.132996,270.420746 477.608521,270.921906 
	C493.301056,287.460358 494.752502,314.327545 480.945312,332.513153 
	C476.695221,338.111053 476.320862,338.233643 471.050568,333.275421 
	C462.442749,325.177185 455.774048,315.716827 451.501831,304.623871 
	C450.992523,303.301422 451.078522,301.623657 448.963287,300.276703 
	C445.585602,327.462463 455.652466,347.720245 478.871185,362.559387 
	C474.390106,363.875458 470.749847,363.308441 467.241058,363.049896 
	C435.247772,360.692261 403.737671,355.674011 373.549042,344.389069 
	C355.599152,337.679138 338.789856,328.927338 326.446960,313.565063 
	C313.849792,297.886383 312.427307,279.752411 322.178467,262.298798 
	C330.494110,247.414581 343.364990,237.242218 357.376587,228.304291 
	C362.425171,225.083847 367.781555,222.342239 373.031281,219.443298 
	C374.551697,218.603668 376.029785,217.394073 378.103699,217.798325 
	C378.121887,220.559296 375.860382,221.160080 374.450256,222.326843 
	C361.351044,233.165207 350.134613,245.591888 342.444916,260.866547 
	C338.493408,268.715820 336.280457,277.023010 338.325928,285.949554 
	C338.692596,287.549774 338.840607,289.215942 340.552643,290.750153 
	C347.425781,276.120941 355.174072,262.243805 364.868500,249.479126 
	C374.492004,236.807877 385.963013,225.971008 398.495972,214.628403 
	C391.692841,215.582657 386.751129,218.924484 380.985474,220.025986 
	C399.403412,202.453629 420.636993,188.918762 442.544373,176.191208 
	C437.393463,176.457352 432.311066,176.075760 427.287811,177.097641 
	C426.081696,177.342987 424.098297,178.223480 424.194458,175.192047 
	C425.774933,174.378830 427.121216,174.052261 428.065063,172.933502 
z"/>
<path fill="#000000" opacity="1.000000" stroke="none" 
	d="
M544.596741,210.667358 
	C542.659241,218.664276 542.576843,226.200439 544.983215,233.732666 
	C549.164673,246.821259 560.381348,255.431717 574.114502,256.805542 
	C589.592529,258.353882 603.751709,253.442276 617.920227,248.604797 
	C633.809265,243.179871 650.023132,239.817429 666.833923,239.989365 
	C673.140015,240.053848 679.455933,240.762558 685.735413,241.463165 
	C695.220764,242.521439 705.392151,236.293259 708.798157,227.387619 
	C709.833008,224.682007 708.636841,223.545212 706.793579,222.052795 
	C699.426025,216.087585 698.467529,212.097656 702.404602,203.442123 
	C697.123108,200.840027 691.815552,198.194916 686.480408,195.606766 
	C682.734497,193.789581 678.973755,191.999374 675.178833,190.287506 
	C669.514282,187.732254 665.251221,184.773972 662.986206,177.917130 
	C659.791565,168.246246 650.334351,164.100540 641.427368,160.653656 
	C626.590515,154.911987 611.154724,151.602936 595.179688,151.203812 
	C590.604797,151.089508 585.323608,149.549026 584.504395,157.258972 
	C581.554932,155.136307 581.198120,152.539734 580.129333,150.447067 
	C576.140198,142.636795 570.430725,137.276825 561.137024,137.320694 
	C552.510315,137.361420 546.445496,145.087814 547.805115,153.594696 
	C548.736572,159.422409 551.642456,164.159470 555.032654,168.749985 
	C555.993225,170.050674 557.513794,171.006195 557.798279,173.346909 
	C549.602417,174.209091 542.811401,171.657745 537.550903,165.538010 
	C529.187988,155.809021 528.438904,141.944443 535.419861,131.651505 
	C541.783691,122.268471 554.926514,118.322632 567.195007,122.145630 
	C574.797668,124.514687 580.991333,128.864731 585.017151,135.797058 
	C586.638062,138.588272 588.573853,139.585495 591.755493,139.841644 
	C615.213257,141.730194 637.883606,146.543213 658.368225,158.876419 
	C665.839111,163.374435 672.150330,168.904022 674.077576,177.961700 
	C674.697021,180.872894 677.075195,181.777939 679.260437,182.924210 
	C692.249756,189.737823 705.614929,195.776672 719.077148,201.558380 
	C724.118530,203.723541 725.627563,206.711914 724.203857,211.655746 
	C720.507324,224.491776 713.914490,235.888931 705.829529,246.313278 
	C701.062073,252.460159 693.570374,253.236313 686.225647,253.041687 
	C665.139038,252.482971 644.724792,255.914444 625.142456,263.697662 
	C597.811096,274.560822 574.127563,290.882629 553.653809,312.000488 
	C539.843933,326.244781 528.613098,342.236572 519.849060,359.992920 
	C518.854248,362.008453 517.963562,363.973785 515.309998,363.975464 
	C507.481354,363.980408 499.652344,363.992523 491.824554,363.905792 
	C490.913971,363.895691 490.010010,363.283539 488.229736,362.629852 
	C503.629700,325.846527 529.688904,298.590515 562.415527,275.224365 
	C539.745422,268.582214 526.878052,255.128006 528.987305,231.479446 
	C530.052063,219.541702 535.793152,209.596497 546.132507,201.835999 
	C546.557800,205.348007 544.907471,207.689774 544.596741,210.667358 
z"/>
<path fill="#000000" opacity="1.000000" stroke="none" 
	d="
M594.134766,333.031586 
	C593.684814,343.220886 597.480408,351.204041 605.608459,358.686493 
	C581.403687,361.167511 558.553528,363.353882 534.100647,363.312714 
	C544.109009,341.329620 558.047607,323.525970 574.244812,307.559174 
	C599.973877,282.196167 629.563599,263.554596 666.674194,257.566101 
	C665.581665,260.710815 663.080750,260.524689 661.324402,261.143005 
	C638.003174,269.352966 618.914490,283.279449 604.495972,303.380524 
	C598.279358,312.047180 594.195435,321.634186 594.134766,333.031586 
z"/>
<path fill="#000000" opacity="1.000000" stroke="none" 
	d="
M428.225098,172.688171 
	C427.121216,174.052261 425.774933,174.378830 424.239502,174.870651 
	C416.598572,177.606628 410.074615,181.981369 403.201111,185.678299 
	C380.436890,197.922089 358.205902,211.014328 338.000916,227.254501 
	C324.895416,237.788315 313.453552,249.784134 306.454132,265.372559 
	C301.063751,277.377441 300.834198,289.532990 305.964569,301.716309 
	C306.970673,304.105499 308.027130,306.473511 309.066254,308.864777 
	C307.191742,309.718018 306.579315,308.439972 305.817291,307.723450 
	C286.834808,289.874359 284.617676,264.188934 299.946625,243.072128 
	C311.279999,227.459534 326.590668,216.650055 342.820892,206.967682 
	C365.669800,193.336838 390.281219,183.582047 415.252289,174.664276 
	C419.015076,173.320526 422.689148,171.728699 426.450897,170.381805 
	C428.347870,169.702621 430.137207,169.512619 428.225098,172.688171 
z"/>
<path fill="#000000" opacity="1.000000" stroke="none" 
	d="
M480.811829,546.111267 
	C479.450073,543.111511 478.219116,540.463196 476.988190,537.814941 
	C476.712585,537.877014 476.436981,537.939087 476.161377,538.001160 
	C476.161377,545.929443 476.010559,553.861694 476.221313,561.784363 
	C476.336823,566.127747 475.590332,568.693420 470.295593,568.430481 
	C462.788208,568.057739 462.729736,568.356812 462.711456,562.091248 
	C462.674011,549.263000 462.817383,536.432617 462.608154,523.607605 
	C462.539215,519.380371 463.754120,517.544312 468.243622,517.714111 
	C482.454590,518.251465 478.572388,515.449036 484.616425,528.694824 
	C486.522797,532.872742 487.698151,537.419617 490.972351,541.644653 
	C494.562836,535.723022 496.922211,529.727295 499.075775,523.731812 
	C500.775574,518.999695 503.481476,517.492065 508.388458,517.690369 
	C519.494934,518.139282 519.149597,516.394165 519.103149,528.669800 
	C519.060242,539.998413 518.887756,551.333191 519.198181,562.653564 
	C519.346558,568.064941 516.544373,568.419800 512.349609,568.402893 
	C508.149414,568.386047 505.340607,568.055176 505.614990,562.582458 
	C506.029480,554.315125 505.723083,546.011658 504.737823,537.454468 
	C502.237030,543.117432 499.590424,548.722046 497.293304,554.466370 
	C496.029510,557.626526 494.339233,559.240906 490.697723,559.276489 
	C487.160248,559.310974 485.652832,557.652344 484.570496,554.686157 
	C483.545685,551.877686 482.166168,549.198669 480.811829,546.111267 
z"/>
<path fill="#000000" opacity="1.000000" stroke="none" 
	d="
M639.645264,542.462952 
	C639.667297,535.543091 639.849976,529.047485 639.634766,522.565125 
	C639.490723,518.226379 641.872925,517.543396 645.305542,517.798767 
	C648.718262,518.052551 653.133057,516.532104 653.109924,522.570068 
	C653.056946,536.381836 653.081482,550.193970 653.116943,564.005798 
	C653.125183,567.215393 651.569519,568.547668 648.464966,568.299805 
	C648.134460,568.273376 647.791443,568.254578 647.468079,568.311157 
	C640.251709,569.575867 635.848694,566.938354 632.983459,559.864014 
	C630.107178,552.762207 625.785278,546.245850 622.096924,539.472961 
	C621.682739,539.595947 621.268494,539.718872 620.854248,539.841858 
	C620.854248,546.757568 620.774231,553.674438 620.876648,560.588684 
	C620.979736,567.551086 615.430664,571.071594 609.040833,567.989929 
	C607.192261,567.098450 607.128296,565.359741 607.124207,563.720276 
	C607.089783,549.908508 607.133728,536.096558 607.100342,522.284790 
	C607.092773,519.161743 608.513977,518.115173 611.606140,517.706421 
	C619.293640,516.690308 624.418823,518.905701 627.532104,526.594116 
	C630.377380,533.620483 634.516724,540.122803 638.190125,547.053040 
	C640.296021,545.822632 639.305908,544.155945 639.645264,542.462952 
z"/>
<path fill="#000000" opacity="1.000000" stroke="none" 
	d="
M592.711548,440.162659 
	C598.442993,446.152466 598.682678,451.850739 593.666443,459.970154 
	C596.205017,463.412964 599.191406,466.758759 599.319214,471.607880 
	C599.514404,479.013367 596.056274,484.227051 588.922363,486.007721 
	C579.429504,488.377136 569.732727,487.002655 560.122559,487.157532 
	C557.775940,487.195374 557.078003,485.538086 557.079895,483.451172 
	C557.092468,469.153992 557.086975,454.856750 557.119629,440.559631 
	C557.123535,438.837219 557.412903,436.864899 559.592651,436.893585 
	C569.513062,437.024231 579.535339,435.339600 589.305786,438.339630 
	C590.397705,438.674927 591.371277,439.395477 592.711548,440.162659 
M578.242920,466.115417 
	C575.292297,466.251617 571.409607,464.900360 571.411865,470.019653 
	C571.413208,473.076111 570.828003,476.570496 575.563110,477.026459 
	C580.832764,477.533905 584.366943,476.013062 584.781433,472.589081 
	C585.286194,468.418915 583.058594,466.476257 578.242920,466.115417 
M575.032227,455.752625 
	C575.864807,455.741394 576.698425,455.752777 577.529785,455.714722 
	C580.292969,455.588226 582.546082,454.684937 582.689819,451.496582 
	C582.829651,448.396515 580.716553,446.894318 578.052979,446.595642 
	C575.785950,446.341400 572.435303,445.066864 571.730957,448.489014 
	C571.228821,450.928955 569.547302,454.732635 575.032227,455.752625 
z"/>
<path fill="#000000" opacity="1.000000" stroke="none" 
	d="
M560.433716,519.165527 
	C570.819397,523.311707 572.528076,530.536926 565.942871,541.753418 
	C569.612854,545.031128 572.075684,549.102600 572.035156,554.229492 
	C571.975647,561.754883 566.945068,567.239746 558.273438,567.952332 
	C550.009460,568.631470 541.654053,568.200195 533.338867,568.253845 
	C530.779114,568.270386 529.827271,566.821289 529.830811,564.445984 
	C529.851624,550.304688 529.848389,536.163391 529.881714,522.022095 
	C529.887634,519.522522 530.948975,517.770752 533.713135,517.848022 
	C542.496338,518.093750 551.354248,516.751648 560.433716,519.165527 
M556.796631,549.707886 
	C554.582703,546.637573 551.281250,547.279846 548.202209,547.217346 
	C546.295471,547.178650 544.276001,547.387207 544.294800,549.870789 
	C544.316162,552.692627 542.707764,556.393066 545.805481,558.041748 
	C548.673584,559.568298 552.319153,559.196655 555.278198,557.327332 
	C557.875366,555.686584 558.214661,553.137695 556.796631,549.707886 
M553.453430,528.680237 
	C551.658997,528.444153 549.870728,528.102905 548.068665,527.998413 
	C545.775818,527.865540 544.133301,528.745422 544.207947,531.357849 
	C544.262146,533.253174 543.440552,535.789612 545.871948,536.566772 
	C548.889465,537.531250 552.315369,537.806580 554.723633,535.257507 
	C556.498901,533.378479 556.175842,530.980896 553.453430,528.680237 
z"/>
<path fill="#000000" opacity="1.000000" stroke="none" 
	d="
M422.186157,483.426208 
	C411.279175,488.533783 399.999664,487.033264 388.910248,487.202850 
	C386.507080,487.239624 385.856354,485.585602 385.856842,483.517120 
	C385.860107,469.195801 385.876740,454.874481 385.862610,440.553162 
	C385.859924,437.831848 387.140320,436.596466 389.848663,436.701874 
	C397.484894,436.999023 405.140320,436.114441 412.766541,437.499115 
	C423.487152,439.445679 431.087494,445.783173 433.064606,454.826843 
	C435.687378,466.823822 431.998444,476.774170 422.186157,483.426208 
M405.204529,476.629272 
	C406.341278,476.404053 407.490784,476.229279 408.612732,475.945557 
	C417.051636,473.811707 420.345123,468.009644 418.877411,457.904053 
	C417.911499,451.253113 412.060699,447.092072 404.294922,447.227570 
	C401.346924,447.279053 400.078369,448.311890 400.122620,451.311737 
	C400.227783,458.443298 400.247589,465.578247 400.148987,472.709686 
	C400.106506,475.781982 401.482147,476.936890 405.204529,476.629272 
z"/>
<path fill="#000000" opacity="1.000000" stroke="none" 
	d="
M461.839539,436.724670 
	C465.443176,437.136688 468.628540,437.284088 471.684082,437.991882 
	C483.243652,440.669556 490.156525,450.169189 489.853821,462.665070 
	C489.557373,474.903137 482.396790,483.694885 470.706512,486.095184 
	C462.319641,487.817230 453.815796,487.119171 445.351501,487.222809 
	C442.742004,487.254761 441.876892,485.748566 441.878113,483.408905 
	C441.885590,469.109406 441.894714,454.809937 441.882111,440.510437 
	C441.879700,437.778046 443.207092,436.652527 445.898102,436.692139 
	C451.051605,436.768127 456.207001,436.716217 461.839539,436.724670 
M467.673950,448.582916 
	C465.906494,448.168213 464.158447,447.542419 462.367981,447.377808 
	C456.658051,446.852753 456.173462,447.349213 456.157776,453.210907 
	C456.140472,459.685974 456.245453,466.162384 456.146576,472.635864 
	C456.100616,475.642181 457.336121,476.753082 460.312988,476.698639 
	C467.149902,476.573578 472.750458,473.102905 474.448425,467.671570 
	C476.856293,459.969574 474.598053,453.017548 467.673950,448.582916 
z"/>
<path fill="#000000" opacity="1.000000" stroke="none" 
	d="
M316.208344,442.708374 
	C325.262573,450.909088 326.091949,460.963989 322.866730,471.340515 
	C319.819946,481.142853 311.913757,485.233337 302.039856,486.546967 
	C295.055634,487.476135 288.104279,486.952484 281.143463,487.217896 
	C278.010895,487.337311 276.652924,486.083618 276.674988,482.838531 
	C276.769897,468.876617 276.721802,454.913727 276.724243,440.951172 
	C276.724609,438.831909 276.913116,436.762329 279.733337,436.780182 
	C288.851074,436.838013 298.029907,435.861908 307.029785,438.131256 
	C310.278961,438.950500 313.279083,440.376617 316.208344,442.708374 
M297.150452,447.341980 
	C292.308899,446.431396 290.600189,448.566833 290.745636,453.310211 
	C290.954285,460.115875 290.795013,466.935577 290.675354,473.747192 
	C290.628510,476.414490 292.229034,476.604309 294.237915,476.693604 
	C302.396698,477.056335 308.775299,472.252319 309.722443,464.953430 
	C311.019745,454.956329 307.386627,449.521637 297.150452,447.341980 
z"/>
<path fill="#000000" opacity="1.000000" stroke="none" 
	d="
M737.772034,437.750824 
	C749.690552,442.648682 750.871582,453.043701 740.877075,463.432648 
	C746.736877,469.897339 749.701843,477.957886 753.400269,485.668152 
	C745.178040,489.509735 739.727478,487.655121 736.013489,480.368073 
	C734.358032,477.119965 733.177856,473.547028 730.449097,470.955414 
	C728.574585,469.175110 726.220459,467.809967 723.682678,468.843292 
	C721.389832,469.776947 722.324768,472.319061 722.168396,474.220367 
	C722.059509,475.544220 722.143616,476.884338 722.149536,478.217163 
	C722.190308,487.358765 722.817932,487.502472 711.505615,487.203217 
	C709.027222,487.137604 707.862854,485.837036 707.860962,483.433014 
	C707.849609,469.105530 707.854492,454.778015 707.843872,440.450531 
	C707.842102,438.013031 708.949829,436.674347 711.461853,436.751099 
	C720.098206,437.015015 728.786316,435.821655 737.772034,437.750824 
M730.294556,447.868042 
	C728.659363,447.679382 727.028503,447.411438 725.387939,447.322510 
	C723.406372,447.215118 722.064270,448.166382 722.257080,450.238831 
	C722.487061,452.711365 720.721375,456.168671 723.889282,457.367828 
	C726.718506,458.438782 730.287964,458.654297 732.490967,455.508026 
	C734.461304,452.694061 733.737122,450.180420 730.294556,447.868042 
z"/>
<path fill="#000000" opacity="1.000000" stroke="none" 
	d="
M709.971436,541.361694 
	C710.199341,547.964722 710.201843,554.125854 710.331970,560.284241 
	C710.387878,562.927979 709.501648,564.759094 706.910950,565.698059 
	C699.302185,568.455750 691.576355,570.067566 683.440247,568.574341 
	C669.228760,565.965942 661.457825,556.455872 661.743225,541.941956 
	C662.016541,528.045471 670.560730,518.585449 684.689331,516.932129 
	C690.487671,516.253601 696.316467,516.471619 702.028442,518.117859 
	C709.304260,520.214783 710.729797,523.325378 707.436157,530.894409 
	C703.711365,529.803101 700.001282,528.397766 696.163147,527.648560 
	C681.863892,524.857422 673.150269,534.628052 677.036499,548.688843 
	C679.371094,557.135559 686.955078,558.967102 693.443970,558.431885 
	C695.761841,558.240723 696.886047,556.785461 696.895874,554.355835 
	C696.905640,551.952820 696.488342,549.707703 693.670349,549.687012 
	C688.888916,549.651917 688.865295,546.633240 689.152222,543.266907 
	C689.487671,539.330994 692.509155,539.592834 695.122253,539.794983 
	C700.013367,540.173340 705.072449,538.464172 709.971436,541.361694 
z"/>
<path fill="#000000" opacity="1.000000" stroke="none" 
	d="
M443.150635,517.800903 
	C451.272217,517.843201 451.274780,517.843201 451.274017,525.546997 
	C451.273254,533.370544 451.336304,541.194946 451.246979,549.017517 
	C451.103821,561.552734 443.918427,568.561707 430.744812,569.154846 
	C416.646271,569.789734 408.946655,563.758057 407.541870,550.983398 
	C406.483002,541.354675 407.283539,531.693298 407.034210,522.050293 
	C406.960815,519.212708 408.303253,517.951538 411.247192,517.741821 
	C420.900879,517.053955 421.261993,517.312195 421.281189,527.164551 
	C421.295746,534.655090 421.113647,542.153320 421.396576,549.633850 
	C421.662354,556.660645 426.395996,559.931274 432.373505,557.755554 
	C435.712402,556.540344 436.847351,554.076233 436.866211,550.778564 
	C436.918610,541.624634 437.054626,532.470764 437.041534,523.317078 
	C437.035950,519.402954 438.514191,517.295471 443.150635,517.800903 
z"/>
<path fill="#000000" opacity="1.000000" stroke="none" 
	d="
M650.307861,486.009216 
	C649.873230,483.699799 650.863159,482.087036 651.500549,480.388184 
	C656.472107,467.136658 661.543884,453.921539 666.363403,440.615021 
	C667.390015,437.780670 668.858337,436.603241 671.794312,436.681000 
	C686.153992,437.061401 683.073242,434.292053 688.288330,447.825104 
	C692.119385,457.766541 695.753174,467.784149 699.447998,477.777740 
	C700.418762,480.403259 701.726135,482.947144 701.748535,485.811493 
	C695.112610,489.272614 689.510986,487.675140 686.418884,481.497253 
	C685.744385,480.149567 685.206116,478.535156 683.419800,478.504730 
	C678.426453,478.419678 673.428894,478.421753 668.436523,478.538361 
	C666.942444,478.573212 665.934998,479.902985 665.739563,481.173065 
	C664.748169,487.616180 660.185059,487.660400 655.290283,487.271881 
	C653.659790,487.142395 651.929504,487.584167 650.307861,486.009216 
M671.601440,464.013824 
	C670.700195,469.278198 674.721497,467.427216 677.095032,467.687775 
	C679.003296,467.897217 681.219543,467.521545 680.481995,464.842102 
	C679.452026,461.100494 678.713135,457.166626 676.089661,453.620270 
	C673.273621,456.500153 673.332886,460.239838 671.601440,464.013824 
z"/>
<path fill="#000000" opacity="1.000000" stroke="none" 
	d="
M345.099121,438.939087 
	C348.539856,434.930115 352.821106,437.462067 356.554138,436.692169 
	C362.001251,435.568787 363.141785,439.401489 364.568604,443.331818 
	C369.160919,455.981720 373.965576,468.554382 378.639252,481.175049 
	C379.251801,482.829132 380.394714,484.452637 379.481964,486.592987 
	C376.032166,487.829376 372.377228,487.178741 368.782806,487.091248 
	C366.517120,487.036102 365.793243,485.104706 365.346558,483.337158 
	C364.287628,479.146942 361.574371,477.877106 357.536346,478.291901 
	C355.396484,478.511627 353.194000,478.522919 351.057251,478.287842 
	C346.673645,477.805603 343.607056,478.991547 342.580902,483.739441 
	C341.999817,486.428314 340.063934,487.384003 337.358490,487.259949 
	C334.412384,487.124847 331.455322,487.229279 327.105743,487.229279 
	C333.308868,470.541107 339.112396,454.927856 345.099121,438.939087 
M353.017914,454.189911 
	C351.721954,458.511139 349.184265,462.506195 349.154358,467.474030 
	C352.634644,467.779694 355.683167,468.140320 358.947113,467.180084 
	C358.493988,462.466064 356.634399,458.411469 355.013367,454.294922 
	C354.734924,453.587891 354.328430,452.612427 353.017914,454.189911 
z"/>
<path fill="#000000" opacity="1.000000" stroke="none" 
	d="
M609.126709,483.578674 
	C609.091858,469.478485 609.168091,455.838287 609.017761,442.200562 
	C608.974060,438.231293 610.194763,436.499084 614.443359,436.622498 
	C623.085693,436.873566 631.744690,436.866791 640.387878,436.633606 
	C644.691589,436.517487 645.230530,438.719513 645.258667,442.200684 
	C645.286865,445.689117 644.304077,447.503998 640.455750,447.319824 
	C636.141418,447.113312 631.807922,447.344269 627.484436,447.277374 
	C624.445740,447.230377 623.428711,448.831940 623.326904,451.616730 
	C623.216370,454.639099 624.610535,455.818542 627.519165,455.767212 
	C631.343323,455.699677 635.179016,455.950226 638.993286,455.750366 
	C643.155029,455.532349 644.017029,457.757019 644.048096,461.301941 
	C644.078613,464.778412 643.044678,466.605865 639.192932,466.376007 
	C635.381409,466.148560 631.542725,466.421448 627.719482,466.328949 
	C623.961853,466.238068 623.420593,468.599701 623.347656,471.553497 
	C623.272583,474.597717 623.910095,476.803680 627.669189,476.702820 
	C632.489563,476.573486 637.319214,476.760345 642.137756,476.598358 
	C645.047424,476.500549 646.171753,477.887665 645.887756,480.498169 
	C645.611023,483.042389 647.094849,486.996063 642.734009,487.120056 
	C632.596924,487.408325 622.445862,487.225800 612.300659,487.191711 
	C610.298645,487.184998 609.327332,485.964111 609.126709,483.578674 
z"/>
<path fill="#000000" opacity="1.000000" stroke="none" 
	d="
M358.590424,535.717407 
	C357.248535,546.605347 350.196625,552.146118 338.668152,551.732239 
	C331.149292,551.462280 330.996674,551.601318 330.921143,558.787964 
	C330.814758,568.912109 330.191315,569.395264 320.178192,568.320496 
	C317.636475,568.047729 316.699341,566.940491 316.702393,564.528320 
	C316.720459,550.229919 316.710449,535.931396 316.673767,521.633118 
	C316.666748,518.896851 317.973114,517.744934 320.644562,517.763000 
	C327.626740,517.810181 334.666992,517.223999 341.578613,517.927063 
	C352.475220,519.035583 358.977051,524.268982 358.590424,535.717407 
M343.110413,531.624573 
	C340.373444,528.200928 336.338135,527.243164 332.868744,528.798462 
	C329.235931,530.427063 331.423706,534.683105 331.136047,537.782227 
	C330.985382,539.405884 331.908264,540.455566 333.668549,540.890198 
	C340.343414,542.538391 344.261230,539.154053 343.110413,531.624573 
z"/>
<path fill="#000000" opacity="1.000000" stroke="none" 
	d="
M505.822937,474.086304 
	C506.494293,468.197327 504.735046,463.671478 501.560974,459.255951 
	C496.640076,452.410370 492.243561,445.187866 487.584381,438.063446 
	C502.715118,431.422638 506.393951,443.915894 512.358765,452.603516 
	C516.097229,450.225983 517.653687,446.546112 519.320251,443.383209 
	C522.214233,437.890869 526.133911,435.678314 532.136475,436.666870 
	C533.905151,436.958160 535.791382,436.367371 537.538391,437.312805 
	C538.316406,439.450684 536.604248,440.728119 535.692566,442.162018 
	C531.767456,448.335022 527.904297,454.565979 523.608582,460.477936 
	C521.009216,464.055267 519.732666,467.699860 520.111633,472.056732 
	C520.283936,474.037842 520.146790,476.045837 520.150391,478.041656 
	C520.167603,487.634399 520.170227,487.506927 510.483551,487.306122 
	C507.012054,487.234161 505.656036,485.919922 505.818726,482.549591 
	C505.946899,479.895050 505.832001,477.228729 505.822937,474.086304 
z"/>
<path fill="#000000" opacity="1.000000" stroke="none" 
	d="
M370.209656,568.271118 
	C366.876678,568.192383 366.720398,566.179688 366.717499,564.074707 
	C366.698120,550.097717 366.725830,536.120544 366.637482,522.143982 
	C366.617035,518.907288 368.051025,517.581177 371.164062,517.762817 
	C371.993073,517.811157 372.827515,517.762756 373.659454,517.764465 
	C380.788879,517.779297 380.962738,517.946167 380.972137,524.999573 
	C380.984100,533.984741 381.190491,542.976318 380.908020,551.952393 
	C380.760284,556.646484 382.575378,558.155579 387.037384,557.818359 
	C390.842407,557.530884 394.691956,557.889648 398.512421,557.733582 
	C402.388000,557.575378 403.283325,559.598083 403.256989,563.008972 
	C403.231598,566.296387 402.658905,568.428650 398.642578,568.357361 
	C389.327484,568.192017 380.007568,568.297241 370.209656,568.271118 
z"/>
<path fill="#000000" opacity="1.000000" stroke="none" 
	d="
M592.771667,568.283691 
	C580.352966,568.337708 581.895203,569.242676 581.817993,557.972656 
	C581.739258,546.494019 582.006836,535.007874 581.670166,523.538330 
	C581.512146,518.154297 584.208313,517.605042 588.460144,517.717651 
	C595.910583,517.914978 596.175293,517.922852 596.186707,523.487671 
	C596.213745,536.630432 596.206421,549.773376 596.146484,562.915955 
	C596.136414,565.130310 596.724792,567.853027 592.771667,568.283691 
z"/>
<path fill="#000000" opacity="1.000000" stroke="none" 
	d="
M653.147339,184.905228 
	C654.216614,186.551712 655.647888,187.614532 655.666382,189.413803 
	C645.228149,192.700272 637.368896,190.813522 631.333313,183.671112 
	C637.861267,176.645432 646.745117,177.031097 653.147339,184.905228 
z"/>
</svg>