<?xml version="1.0" encoding="UTF-8" standalone="no"?>
<!-- Created with Inkscape (http://www.inkscape.org/) -->

<svg
   version="1.1"
   id="svg1"
   width="650.17157"
   height="363.12897"
   viewBox="0 0 650.17157 363.12897"
   sodipodi:docname="00_logo_only_image.svg"
   inkscape:version="1.4.2 (f4327f4, 2025-05-13)"
   inkscape:export-filename="favicon.jpg"
   inkscape:export-xdpi="96"
   inkscape:export-ydpi="96"
   xmlns:inkscape="http://www.inkscape.org/namespaces/inkscape"
   xmlns:sodipodi="http://sodipodi.sourceforge.net/DTD/sodipodi-0.dtd"
   xmlns:xlink="http://www.w3.org/1999/xlink"
   xmlns="http://www.w3.org/2000/svg"
   xmlns:svg="http://www.w3.org/2000/svg">
  <defs
     id="defs1">
    <rect
       x="276.86417"
       y="884.90558"
       width="417.28333"
       height="123.19793"
       id="rect3" />
    <rect
       x="233.14877"
       y="850.46313"
       width="1009.4282"
       height="136.44502"
       id="rect2" />
    <rect
       x="253.01941"
       y="834.56665"
       width="955.11511"
       height="160.28978"
       id="rect1" />
    <linearGradient
       id="linearGradient177"
       inkscape:collect="always">
      <stop
         style="stop-color:#0f3063;stop-opacity:1;"
         offset="0"
         id="stop177" />
      <stop
         style="stop-color:#99cee9;stop-opacity:1;"
         offset="1"
         id="stop178" />
    </linearGradient>
    <linearGradient
       id="linearGradient175"
       inkscape:collect="always"
       inkscape:label="body_gradient">
      <stop
         style="stop-color:#206ba5;stop-opacity:1;"
         offset="0"
         id="stop175" />
      <stop
         style="stop-color:#5dc2e0;stop-opacity:1;"
         offset="1"
         id="stop176" />
    </linearGradient>
    <linearGradient
       inkscape:collect="always"
       xlink:href="#linearGradient175"
       id="linearGradient176"
       x1="629.8421"
       y1="506.42047"
       x2="662.45325"
       y2="287.70667"
       gradientUnits="userSpaceOnUse" />
    <linearGradient
       inkscape:collect="always"
       xlink:href="#linearGradient177"
       id="linearGradient178"
       x1="489.57565"
       y1="479.64612"
       x2="527.92688"
       y2="246.91382"
       gradientUnits="userSpaceOnUse" />
  </defs>
  <sodipodi:namedview
     id="namedview1"
     pagecolor="#ffffff"
     bordercolor="#000000"
     borderopacity="0.25"
     inkscape:showpageshadow="2"
     inkscape:pageopacity="0.0"
     inkscape:pagecheckerboard="0"
     inkscape:deskcolor="#d1d1d1"
     showgrid="false"
     inkscape:zoom="1"
     inkscape:cx="317"
     inkscape:cy="253.5"
     inkscape:window-width="1920"
     inkscape:window-height="991"
     inkscape:window-x="-9"
     inkscape:window-y="-9"
     inkscape:window-maximized="1"
     inkscape:current-layer="layer1"
     inkscape:export-bgcolor="#ffffff00" />
  <g
     inkscape:groupmode="layer"
     inkscape:label="Image"
     id="g1"
     style="display:inline"
     transform="translate(-434.22716,-180.87105)">
    <path
       style="display:inline;fill:#14305f;fill-opacity:1"
       d="m 1046,358.93581 c 7.2415,-3.98672 12.5516,-9.28558 15.4685,-15.43581 4.002,-8.43802 3.4861,-8.4912 -1.5439,-11.83441 -5.988,-3.9799 -10.7132,-10.7548 -10.9181,-15.8039 -0.2484,-6.12137 2.9279,-9.89994 5.0224,-10.11007 3.301,-0.33118 1.0629,-2.0537 -9.7789,-7.26429 -29.9563,-14.39707 -45.79631,-19.99449 -46.82683,-23.43928 -0.87092,-6.53222 -3.74163,-11.65966 -6.9821,-16.84502 -4.15856,-7.0399 -20.03517,-16.83997 -37.52745,-22.7341 -20.50973,-6.91088 -38.4114,-10.17836 -61.03756,-11.14082 l -14.62394,-0.62206 -1.24686,3.89697 c -1.47789,4.61904 -2.03928,8.16783 -3.00526,3.93003 -0.60611,-2.65904 -5.41132,-12.28575 -10.65684,-17.86052 -24.10154,-25.61434 -61.44544,0.97614 -33.73201,37.23105 l 6.0106,6.99376 -6.23651,-0.25837 c -19.47349,-0.80676 -31.10708,-16.1147 -32.02634,-33.92144 -1.29111,-25.00965 8.71452,-38.38687 32.61682,-42.33676 17.96979,-2.96954 38.02538,7.32806 47.02616,23.27655 1.6831,2.9823 2.30739,4.81404 4.85548,4.81607 2.879,0.002 20.61911,0.92164 31.64587,2.63905 14.74345,2.29628 34.42024,8.4647 47.27501,13.01537 31.45783,11.13627 45.27736,25.45655 48.01896,37.98287 l 1.5859,7.24593 c 0,0 3.1011,1.79283 11.884,5.98959 8.7829,4.19675 52.0961,24.5286 55.1168,25.9845 4.2474,2.04715 7.268,3.47154 7.5969,3.84046 0.3891,0.4364 0.4581,2.1682 0.3997,4.42936 -0.1983,7.67345 -3.8918,14.93556 -7.1206,21.89948 -4.6082,9.93921 -19.3194,34.63243 -17.2885,27.95213 0.3344,-1.1 1.2223,-4.03193 1.619,-5.35168 l 0.7211,-2.39955 -4.4058,2.71534 c -6.1048,3.76256 -12.6607,6.58719 -15.2386,6.56564 -1.506,-0.0126 -0.4893,-0.94182 3.3329,-3.04607 z"
       id="path61"
       inkscape:label="face_part_top_ok"
       sodipodi:nodetypes="sssssssssscsssscssssssssczsssasscsss" />
    <path
       style="display:inline;fill:#e26e17;fill-opacity:1"
       d="M 452.43405,453.51509 C 436.67809,434.81632 430.94593,413.84525 436.02971,393.5 c 1.70712,-6.83185 3.53937,-12.77867 11.24608,-26.199 7.91786,-13.78803 21.30325,-26.13591 34.90371,-36.73344 27.02881,-21.06095 55.55553,-35.01447 86.54343,-48.41684 20.66926,-8.93953 48.06464,-18.98121 61.15326,-23.87336 5.17898,-1.93575 14.07594,-5.04499 14.07594,-4.3845 0,0.17117 -6.68963,3.80737 -13.70213,7.3721 -17.75305,9.02458 -18.65986,9.80068 -31.25,16.95074 -13.46207,7.64524 -45.14096,25.91065 -59.5,35.34724 -9.59995,6.30897 -14.83385,10.00834 -27.94272,19.75018 -13.58115,10.09282 -31.2546,27.59643 -39.74063,38.96233 -7.24689,9.70624 -13.70107,20.60823 -17.11479,30.11448 -3.4737,9.67328 -4.78862,26.65405 -2.766,35.72015 1.67679,7.51601 5.06046,16.89146 7.23413,20.04429 1.0065,1.4599 1.83001,2.9224 1.83001,3.25 0,1.7026 -2.15966,-0.28646 -8.56595,-7.88928 z"
       id="path32"
       inkscape:label="image_back_ok"
       sodipodi:nodetypes="sssssssssssssssss" />
    <path
       style="display:inline;fill:#14305f;fill-opacity:1"
       d="m 508.33374,441.1273 c -0.29505,-0.89738 2.199,-5.89181 3.48262,-8.65163 8.73555,-18.78172 12.57137,-26.05233 19.36874,-36.87056 6.17928,-9.83453 14.10231,-20.08056 23.37293,-32.08613 8.3118,-10.76388 31.23493,-32.02861 44.31754,-42.81745 1.85656,-1.53105 3.08334,-3.07595 2.72618,-3.43311 -0.80639,-0.80639 -15.04533,3.99352 -23.08395,7.78154 -3.29021,1.55044 -7.59403,3.66602 -7.77518,3.48486 -0.18115,-0.18115 3.63236,-3.71107 6.82872,-6.27005 3.19636,-2.55899 7.80865,-6.26025 10.24952,-8.29656 2.44087,-2.03631 6.35881,-4.88979 8.61709,-6.55562 20.57609,-15.17812 36.28907,-26.21394 58.72661,-38.44471 12.87813,-7.01991 16.52055,-8.70492 11.08544,-8.58665 -1.54103,0.0335 -7.925,0.84275 -14.25,1.2126 -6.325,0.36986 -12.80492,1.12052 -14.18141,1.39167 -4.69695,0.92522 -2.79867,0.20518 4.20212,-3.33232 12.43016,-6.28097 42.9272,-21.79409 85.3622,-33.46922 18.6066,-5.11923 56.56892,-13.62937 57.17303,-12.92742 0.11524,0.1339 0.40053,4.39861 0.63399,9.47713 l 0.42446,9.23368 -5.05719,1.65529 c -16.08112,5.26359 -44.91307,18.53821 -65.0572,29.95323 -23.76524,13.46697 -61.23819,40.6317 -75.75006,55.04798 -18.53205,16.3934 -34.77573,34.91136 -50.57266,53.89588 -11.35809,13.67708 -29.80021,43.54749 -38.81909,63.19229 -4.69395,10.22429 -15.7882,35.85361 -16.09,35.64612 -14.12464,-9.71095 -22.53829,-19.90152 -25.93445,-30.23084 z"
       id="path45"
       sodipodi:nodetypes="ssssssssssssssssssscsssssss"
       inkscape:label="image_neck_back_ok" />
    <path
       style="display:inline;fill:#14305f;fill-opacity:1"
       d="m 963.37593,283.95829 c -3.82746,-0.53494 -12.30053,-4.99463 -14.23978,-6.64761 -1.93926,-1.65297 -4.00679,-3.09642 -4.00679,-3.09642 l 5.43693,-2.98303 c 12.91556,-7.08626 18.33213,-5.33452 27.76974,6.65308 1.7704,2.24875 3.66397,4.42589 3.66397,4.96943 0,1.14088 -12.89304,1.90553 -18.62407,1.10455 z"
       id="path33"
       inkscape:label="image_eye_ok"
       sodipodi:nodetypes="szcssss" />
    <path
       style="display:inline;mix-blend-mode:normal;fill:url(#linearGradient176)"
       d="m 557.15675,486.94315 c -1.08345,-2.10754 11.84183,-37.19559 18.71394,-49.92427 8.5443,-15.82595 23.12027,-37.85096 30.9818,-48.45999 10.19688,-13.76056 21.77849,-26.26643 33.8131,-38.42988 15.42062,-15.49855 26.23803,-23.90857 29.87595,-26.84711 14.50062,-11.71292 22.63998,-17.66998 27.68318,-20.96899 5.49396,-3.59387 12.10555,-7.68347 18.19249,-11.40204 5.87741,-3.59057 16.35613,-9.81514 17.65434,-9.81514 0.27578,0 -3.54881,3.8727 -5.69419,6.253 -5.75972,6.39043 -11.43981,13.92565 -14.87781,18.82145 -7.05116,10.04103 -11.93215,19.52774 -16.53758,30.92528 -5.02181,12.60498 -7.68501,24.87608 -8.55516,39.41919 -1.16671,19.49938 2.84734,43.832 9.62647,58.35446 3.34073,7.15662 11.82491,21.13089 12.82917,21.13089 0.36049,0 1.75057,-3.0375 3.08908,-6.75 4.10491,-11.38547 3.80805,-32.87086 -0.57271,-41.45034 -2.77304,-5.43084 -1.26359,-4.46119 4.20358,2.70034 11.49957,15.06347 16.29414,29.49009 15.43033,48.89178 -0.39947,8.9723 -1.17551,13.72943 -3.79455,20.43225 -2.99615,7.66791 -8.26803,15.25637 -13.5131,21.62026 l -2.42665,2.94429 -4.00008,-3.16813 c -6.11613,-4.84406 -15.49383,-14.72414 -20.68694,-22.46239 -7.27109,-10.83465 -15.4271,-29.02168 -15.69132,-34.25806 -0.0555,-1.1 -0.7672,0.925 -1.58155,4.5 -1.08618,4.76836 -1.33806,9.96329 -0.94544,19.5 0.56209,13.65362 2.45477,22.33958 7.21154,33.09546 6.04375,13.666 17.53914,25.68892 16.5336,25.73311 -45.42108,1.9959 -130.67236,-28.15169 -136.96149,-40.38542 z"
       id="path165"
       inkscape:label="image_body_ok"
       sodipodi:nodetypes="sssssssssssssssssssscssssssss" />
    <path
       style="display:inline;fill:url(#linearGradient178)"
       d="M 683.41973,541.47211 C 643.71799,537.53254 607.89594,530.62138 576.5,520.84404 c -46.34337,-14.43226 -80.55114,-37.03467 -94.69981,-62.57183 -9.8865,-17.84431 -11.29431,-38.044 -3.91312,-56.14644 5.28825,-12.96946 18.74003,-31.17161 31.49584,-41.70692 13.50714,-11.15584 30.0754,-22.18992 46.02216,-30.342 11.36068,-5.80765 12.8513,-6.00844 8.46772,-2.25239 -22.31186,19.11784 -42.17441,41.50453 -51.84005,60.85412 -5.12222,10.25416 -6.88083,15.94922 -7.66473,24.82142 -0.61244,6.9316 -6.25052,32.031 35.04552,61.49485 10.02145,7.15009 16.25591,11.6125 17.80585,12.61964 31.27211,20.32038 108.933,39.38077 136.94682,39.66257 0.50781,0.005 0.96356,1.82225 13.82364,11.08213 1.86468,1.34266 8.51016,4.63969 8.51016,4.63969 l -10,-0.11441 c -5.5,-0.0629 -15.88612,-0.69849 -23.08027,-1.41236 z"
       id="path31"
       inkscape:label="image_body_bottom_ok"
       sodipodi:nodetypes="ssssssssssssscss" />
    <path
       style="display:inline;fill:#0f3063;fill-opacity:1"
       d="m 801,542.88353 c 0,-3.59914 18.58925,-33.8446 29.73714,-48.38353 13.18129,-17.19085 38.17576,-42.68458 55.41422,-56.52108 C 918.8207,411.75677 956.18467,394.07719 995,386.47481 c 5.7493,-1.12606 2.27856,0.99521 -6.5,3.97274 -13.05008,4.42635 -36.65405,16.82434 -44.74976,23.50483 -0.68763,0.56743 -3.95024,3.11822 -7.25024,5.66842 -8.29603,6.41109 -24.10616,22.67193 -29.79572,30.64513 -7.28215,10.20503 -12.33603,20.32459 -15.27249,30.58066 -2.39552,8.36673 -2.62383,10.51586 -2.17784,20.5 0.30155,6.75059 1.15386,12.92208 2.1591,15.63389 2.0958,5.65377 8.14493,14.49988 11.35241,16.6015 1.35065,0.88498 2.06416,1.98381 1.59144,2.45087 -1.05519,1.04257 -56.16065,5.65426 -77.3569,6.47388 -8.525,0.32964 -17.8625,0.81492 -20.75,1.0784 -3.63939,0.33209 -5.25,0.11685 -5.25,-0.7016 z"
       id="path30"
       inkscape:label="image_neck_ok" />
    <path
       style="display:inline;fill:#e26e17;fill-opacity:1"
       d="m 732,543.07367 c 0,-1.99102 15.93641,-32.03823 21.25424,-40.07367 16.17782,-24.44532 37.32135,-48.44813 58.2452,-66.12181 2.19969,-1.858 4.61759,-3.96395 5.37311,-4.67987 2.45962,-2.33072 16.24056,-12.31183 23.33981,-16.90431 3.81216,-2.46608 6.77624,-4.63874 6.58685,-4.82813 -0.1894,-0.1894 -3.69337,-1.04265 -7.7866,-1.89611 -18.84573,-3.92945 -31.40529,-12.64208 -40.18996,-29.95413 -4.54776,-8.96231 -5.63,-14.18852 -6.1826,-23.11941 -1.04642,-16.91175 3.45092,-27.2076 13.12204,-40.67186 4.63706,-6.45576 11.65989,-12.96004 10.91578,-10.32437 -0.31055,1.1 -1.65772,5.30918 -2.45279,8.66235 -1.1086,4.67542 -1.70954,8.56634 -1.6701,18.33765 0.0462,11.44913 0.36527,13.86038 2.67456,20.212 6.81977,18.75759 20.67963,29.49241 42.85237,33.19029 15.42196,2.57202 28.86317,0.45244 59.41809,-9.36977 28.71561,-9.23095 35.0699,-11.00692 49.80854,-13.71833 13.56338,-2.4952 28.85844,-2.80606 48.91656,-0.99668 5.7767,0.52109 21.1335,2.99524 29.7583,-0.29915 8.6248,-3.29439 10.0112,-4.45008 11.4238,-5.29608 1.038,-0.62166 4.4671,-2.82745 4.9746,-2.46654 0.5539,0.39396 -0.053,4.31478 -0.9438,6.14754 -3.5205,7.24147 -3.682,9.86468 -14.119,15.19281 -4.3982,2.24531 -6.5807,2.39773 -27.319,3.06226 -29.66369,0.95053 -44.95821,3.38714 -68.68096,10.94178 -25.02316,7.96875 -50.18065,20.21079 -71.79811,34.93812 -29.87731,20.3545 -60.65761,50.06322 -78.70385,75.96385 -9.41111,13.50717 -23.19498,37.18035 -25.18139,43.2479 -0.52209,1.59474 -2.48315,1.75 -22.10431,1.75 C 740.98544,544 732,543.61343 732,543.07367 Z"
       id="path29"
       inkscape:label="image_jaw_and_neck_ok"
       sodipodi:nodetypes="sssssssssssssssssszsssssssssss" />
  </g>
  <g
     inkscape:groupmode="layer"
     id="layer1"
     inkscape:label="Text"
     style="display:inline"
     transform="translate(-434.22716,-180.87105)" />
</svg>
